# xmcd
#
# Track frame offsets:
#	150
#	14486
#	33103
#	47692
#	65050
#	78465
#	91546
#	109663
#	128034
#	145111
#	158229
#
# Disc length: 2326 seconds
#
# Revision: 0
# Processed by: cddbd v1.5.2PL0 Copyright (c) Steve Scherf et al.
# Submitted via: EZCDAudioConverter 1.2.3.1
#
DISCID=8409140b
DTITLE=John Denver - Complete Albums
DYEAR=1900
DGENRE=
TTITLE0=How Can I Leave You Again
TTITLE1=Some Days Are Diamonds (Some Days Are Stone)
TTITLE2=Shanghai Breezes
TTITLE3=Seasons Of The Heart
TTITLE4=Perhaps Love
TTITLE5=Love Again
TTITLE6=Dancing With The Mountains
TTITLE7=Wild Montana Skies
TTITLE8=I Want To Live
TTITLE9=The Gold And Beyond
TTITLE10=Autograph
EXTD=
EXTT0=
EXTT1=
EXTT2=
EXTT3=
EXTT4=
EXTT5=
EXTT6=
EXTT7=
EXTT8=
EXTT9=
EXTT10=
PLAYORDER=
